<svg width="97" height="87" viewBox="0 0 97 87" fill="none" xmlns="http://www.w3.org/2000/svg">
<path d="M9.7 -1.90996e-06C4.34284 -2.3783e-06 -4.01972e-07 4.32791 -8.687e-07 9.66666L-2.93228e-06 33.2713C-3.39901e-06 38.6101 4.34283 42.938 9.7 42.938L23.1597 42.938C23.1597 46.335 22.9592 49.7321 22.5581 53.1292C21.9566 56.7261 20.954 59.9233 19.5504 62.7209C18.1468 65.5185 16.3421 67.7166 14.1364 69.3152C11.9307 71.1137 9.12351 72.0129 5.71472 72.0129L5.71471 87C11.3292 87 16.2419 85.801 20.4527 83.4031C24.6636 81.0052 28.1726 77.8079 30.9798 73.8114C33.5866 69.8148 35.5917 65.1189 36.9953 59.7235C38.1984 54.528 38.8 48.9328 38.8 42.938L38.8 9.66667C38.8 4.32791 34.4572 2.54377e-07 29.1 -2.13961e-07L9.7 -1.90996e-06Z" fill="#35BCDC"/>
<path d="M67.9 3.17804e-06C62.5428 2.7097e-06 58.2 4.32792 58.2 9.66667L58.2 33.2713C58.2 38.6101 62.5428 42.938 67.9 42.938L81.3597 42.938C81.3597 46.3351 81.1592 49.7321 80.7582 53.1292C80.1566 56.7261 79.154 59.9233 77.7504 62.7209C76.3468 65.5185 74.5421 67.7166 72.3364 69.3152C70.1307 71.1137 67.3235 72.0129 63.9147 72.0129L63.9147 87C69.5292 87 74.4419 85.801 78.6527 83.4031C82.8636 81.0052 86.3726 77.8079 89.1798 73.8114C91.7866 69.8148 93.7917 65.1189 95.1954 59.7235C96.3985 54.528 97 48.9328 97 42.938L97 9.66667C97 4.32792 92.6572 5.34238e-06 87.3 4.87404e-06L67.9 3.17804e-06Z" fill="#35BCDC"/>
</svg>
