<svg width="49" height="49" viewBox="0 0 49 49" fill="none" xmlns="http://www.w3.org/2000/svg">
<g clip-path="url(#clip0_117_7437)">
<path d="M31.3164 7.07331C31.3164 10.9803 28.1012 14.1466 24.1338 14.1466C20.1664 14.1466 16.9512 10.9803 16.9512 7.07331C16.9512 3.16629 20.1664 0 24.1338 0C28.1012 0 31.3164 3.16629 31.3164 7.07331Z" fill="#35BCDC"/>
<path d="M35.7262 25.9111H32.4815C32.4815 21.3747 28.7354 17.6856 24.1338 17.6856C25.0285 17.6856 25.7561 16.969 25.7561 16.0879C25.7561 15.2068 25.0285 14.4902 24.1338 14.4902C30.5249 14.4902 35.7262 19.6125 35.7262 25.9111Z" fill="#001056"/>
<path d="M24.1335 17.6856C19.527 17.6856 15.7808 21.3747 15.7808 25.9111H12.5361C12.5361 19.6125 17.7375 14.4902 24.1335 14.4902C23.2338 14.4902 22.5112 15.2068 22.5112 16.0879C22.5112 16.969 23.2338 17.6856 24.1335 17.6856Z" fill="#001056"/>
<path d="M48.9997 49H45.755C45.755 44.4636 42.0088 40.7744 37.4072 40.7744C38.302 40.7744 39.0296 40.0579 39.0296 39.1768C39.0296 38.2956 38.302 37.5791 37.4072 37.5791C43.7983 37.5791 48.9997 42.7013 48.9997 49Z" fill="#001056"/>
<path d="M37.4079 40.7744C32.8014 40.7744 29.0553 44.4636 29.0553 49H25.8105C25.8105 42.7013 31.0119 37.5791 37.4079 37.5791C36.5082 37.5791 35.7856 38.2956 35.7856 39.1768C35.7856 40.0579 36.5082 40.7744 37.4079 40.7744Z" fill="#001056"/>
<path d="M23.1901 49H19.9454C19.9454 44.4636 16.1992 40.7744 11.5977 40.7744C12.4924 40.7744 13.22 40.0579 13.22 39.1768C13.22 38.2956 12.4924 37.5791 11.5977 37.5791C17.9887 37.5791 23.1901 42.7013 23.1901 49Z" fill="#001056"/>
<path d="M11.5974 40.7744C6.99087 40.7744 3.24471 44.4636 3.24471 49H0C0 42.7013 5.20136 37.5791 11.5974 37.5791C10.6977 37.5791 9.97502 38.2956 9.97502 39.1768C9.97502 40.0579 10.6977 40.7744 11.5974 40.7744Z" fill="#001056"/>
<path d="M18.7803 30.1622C18.7803 34.0692 15.5651 37.2355 11.5977 37.2355C7.63028 37.2355 4.41016 34.0692 4.41016 30.1622C4.41016 26.2552 7.62537 23.0889 11.5928 23.0889C15.5602 23.0889 18.7803 26.2552 18.7803 30.1622Z" fill="#35BCDC"/>
<path d="M44.5898 30.3165C44.5898 34.2235 41.3746 37.3898 37.4072 37.3898C33.4398 37.3898 30.2246 34.2235 30.2246 30.3165C30.2246 26.4095 33.4398 23.2432 37.4072 23.2432C41.3746 23.2432 44.5898 26.4095 44.5898 30.3165Z" fill="#35BCDC"/>
</g>
<defs>
<clipPath id="clip0_117_7437">
<rect width="49" height="49" fill="white"/>
</clipPath>
</defs>
</svg>
