<svg xmlns="http://www.w3.org/2000/svg" viewBox="0 0 302.84 330.64"><defs><style>.cls-1{fill:#35bcdc;}.cls-2{fill:#001156;}</style></defs><title>mmAsset 1</title><g id="Layer_2" data-name="Layer 2"><g id="Layer_1-2" data-name="Layer 1"><path class="cls-1" d="M289.71,0H13.13A13.17,13.17,0,0,0,0,13.13V275.18a13.17,13.17,0,0,0,13.13,13.13H289.71a13.17,13.17,0,0,0,13.13-13.13v-262A13.17,13.17,0,0,0,289.71,0Zm-9.17,254a13.17,13.17,0,0,1-13.13,13.13h-232A13.17,13.17,0,0,1,22.31,254V34.36A13.17,13.17,0,0,1,35.44,21.23h232a13.17,13.17,0,0,1,13.13,13.13Z"/><path class="cls-2" d="M268.59,150.41a108.55,108.55,0,0,1-13.45,16.17,109.92,109.92,0,0,0-12.6-16.6c-19-20.51-41.47-28.39-55.1-31.77a10.79,10.79,0,0,0,3-18.13l.09-.09.19,0c1.8,1.43,36.6,4,64.8,33.72a111.06,111.06,0,0,1,13,16.66Z"/><path class="cls-2" d="M268.59,150.41a108.55,108.55,0,0,1-13.45,16.17c-27.76,27.45-60.73,30-62.47,31.35l-.19,0-.09-.09a10.78,10.78,0,0,0-3-18.13C202.54,176.48,224,169,242.54,150a108.25,108.25,0,0,0,13-16.23,111.06,111.06,0,0,1,13,16.66Z"/><path class="cls-2" d="M42.9,149.52a104.92,104.92,0,0,0,13,15.58A105.34,105.34,0,0,1,68,149.1c18.32-19.77,40-27.37,53.12-30.62A10.39,10.39,0,0,1,118.2,101l-.09-.09-.18,0c-1.74,1.37-35.28,3.89-62.46,32.5a106.77,106.77,0,0,0-12.56,16.06Z"/><path class="cls-2" d="M42.9,149.52a104.92,104.92,0,0,0,13,15.58c26.76,26.46,58.53,28.88,60.22,30.22l.18,0,.09-.09a10.38,10.38,0,0,1,2.91-17.47c-12.7-3.15-33.36-10.35-51.26-28.69a103.79,103.79,0,0,1-12.55-15.65,106.77,106.77,0,0,0-12.56,16.06Z"/><rect class="cls-1" x="85.02" y="140" width="141.6" height="8.79" rx="4.39" transform="translate(-23.82 257.78) rotate(-75.08)"/><rect class="cls-1" x="67.89" y="313.07" width="174.08" height="17.57" rx="2.81"/><rect class="cls-1" x="134.83" y="292.71" width="40.33" height="20.36"/></g></g></svg>