<svg width="36" height="51" viewBox="0 0 36 51" fill="none" xmlns="http://www.w3.org/2000/svg">
<g clip-path="url(#clip0_117_7383)">
<path d="M16.9688 30.4622V29.0137C13.4356 29.0137 10.5654 31.8531 10.5654 35.3593C10.5654 38.8655 13.4307 41.7049 16.9688 41.7049V40.2564C14.239 40.2564 12.0271 38.0645 12.0271 35.3593C12.0271 32.6541 14.2438 30.4622 16.9688 30.4622Z" fill="#001056"/>
<path d="M16.9691 28.1597V26.0205C11.7467 26.0205 7.51172 30.2173 7.51172 35.3927C7.51172 40.568 11.7467 44.7648 16.9691 44.7648V42.6256C12.9374 42.6256 9.66552 39.388 9.66552 35.3879C9.66552 31.3877 12.9374 28.1597 16.9691 28.1597Z" fill="#6FD3F2"/>
<path d="M24.51 35.3681C24.51 38.0732 22.2981 40.2652 19.5684 40.2652V41.7137C23.1016 41.7137 25.9717 38.8742 25.9717 35.3681C25.9717 31.8667 23.1064 29.0225 19.5684 29.0225V30.471C22.2981 30.471 24.51 32.6629 24.51 35.3681Z" fill="#001056"/>
<path d="M26.8719 35.4074C26.8719 39.4028 23.6049 42.6451 19.5684 42.6451V44.7843C24.7907 44.7843 29.0257 40.5875 29.0257 35.4122C29.0257 30.2369 24.7907 26.04 19.5684 26.04V28.1792C23.6001 28.1744 26.8719 31.412 26.8719 35.4074Z" fill="#6FD3F2"/>
<path d="M22.3362 35.191C22.3362 37.4788 20.4631 39.335 18.1544 39.335C15.8457 39.335 13.9727 37.4788 13.9727 35.191C13.9727 32.9031 15.8457 31.0469 18.1544 31.0469C20.468 31.0517 22.3362 32.9031 22.3362 35.191Z" fill="#35BCDC"/>
<path d="M29.6061 11.3147H26.4117C26.4117 6.82047 22.7236 3.16562 18.1934 3.16562C19.0742 3.16562 19.7906 2.45575 19.7906 1.58281C19.7906 0.709866 19.0742 0 18.1934 0C24.4854 0 29.6061 5.07458 29.6061 11.3147Z" fill="#6FD3F2"/>
<path d="M18.194 3.16562C13.6589 3.16562 9.97077 6.82047 9.97077 11.3147H6.77637C6.77637 5.07458 11.8971 0 18.194 0C17.3082 0 16.5968 0.709866 16.5968 1.58281C16.5968 2.45575 17.3082 3.16562 18.194 3.16562Z" fill="#6FD3F2"/>
<path d="M9.97077 11.3047H6.77637V20.4226H9.97077V11.3047Z" fill="#6FD3F2"/>
<path d="M29.6065 11.3047H26.4121V20.4226H29.6065V11.3047Z" fill="#6FD3F2"/>
<path d="M31.4891 21.4399C32.2442 21.4399 32.854 22.0491 32.854 22.7925V46.5298C32.854 47.2781 32.2393 47.8824 31.4891 47.8824H4.51089C3.75585 47.8824 3.14601 47.2733 3.14601 46.5298V22.7925C3.14601 22.0443 3.76069 21.4399 4.51089 21.4399H31.4891ZM31.4891 18.3223H4.51089C2.01828 18.3223 0 20.3224 0 22.7925V46.5298C0 49 2.01828 51.0001 4.51089 51.0001H31.4843C33.9769 51.0001 35.9952 49 35.9952 46.5298V22.7925C36 20.3224 33.9769 18.3223 31.4891 18.3223Z" fill="#001056"/>
</g>
<defs>
<clipPath id="clip0_117_7383">
<rect width="36" height="51" fill="white"/>
</clipPath>
</defs>
</svg>
