<svg xmlns="http://www.w3.org/2000/svg" viewBox="0 0 74.38 97.45"><defs><style>.cls-1{fill:#001056;}.cls-2{fill:#6fd3f2;}.cls-3{fill:#35bcdc;}</style></defs><title>mmAsset 10</title><g id="Layer_2" data-name="Layer 2"><g id="Layer_1-2" data-name="Layer 1"><path class="cls-1" d="M35.32,58.64V55.91a12,12,0,1,0,0,24V77.15a9.26,9.26,0,1,1,0-18.51"/><path class="cls-2" d="M35.32,54.3v-4a17.71,17.71,0,1,0,0,35.42v-4a13.67,13.67,0,1,1,0-27.34"/><path class="cls-1" d="M49.43,67.92a9.25,9.25,0,0,1-9.25,9.25V79.9a12,12,0,1,0,0-24v2.73a9.26,9.26,0,0,1,9.25,9.26"/><path class="cls-2" d="M53.85,68A13.67,13.67,0,0,1,40.18,81.66v4a17.71,17.71,0,0,0,0-35.42v4A13.67,13.67,0,0,1,53.85,68"/><path class="cls-3" d="M45.37,67.58a7.83,7.83,0,1,1-7.83-7.82,7.83,7.83,0,0,1,7.83,7.82"/><path class="cls-2" d="M61.17,23.59h-6.6a17,17,0,0,0-17-17,3.3,3.3,0,0,0,0-6.6A23.61,23.61,0,0,1,61.17,23.59Z"/><path class="cls-2" d="M37.59,6.6a17,17,0,0,0-17,17H14A23.61,23.61,0,0,1,37.59,0a3.3,3.3,0,0,0,0,6.6Z"/><rect class="cls-2" x="14" y="23.57" width="6.6" height="19.01"/><rect class="cls-2" x="54.57" y="23.57" width="6.6" height="19.01"/><path class="cls-1" d="M65.06,44.7a2.82,2.82,0,0,1,2.82,2.82V88.13A2.83,2.83,0,0,1,65.06,91H9.32A2.83,2.83,0,0,1,6.5,88.13V47.52A2.82,2.82,0,0,1,9.32,44.7H65.06m0-6.5H9.32A9.32,9.32,0,0,0,0,47.52V88.13a9.32,9.32,0,0,0,9.32,9.32H65.06a9.32,9.32,0,0,0,9.32-9.32V47.52a9.32,9.32,0,0,0-9.32-9.32Z"/></g></g></svg>