<svg width="50" height="50" viewBox="0 0 50 50" fill="none" xmlns="http://www.w3.org/2000/svg">
<g clip-path="url(#clip0_117_7399)">
<path d="M10.0591 10.4737L8.32048 8.71484C4.07885 12.9341 4.04622 19.8104 8.25056 24.0671C12.4549 28.3238 19.3068 28.3565 23.5484 24.1372L21.8098 22.3784C18.533 25.6341 13.2473 25.6107 9.99849 22.327C6.759 19.0339 6.78697 13.7293 10.0591 10.4737Z" fill="#001056"/>
<path d="M27.2354 27.865C26.8811 28.2158 26.5129 28.5479 26.1353 28.8613C25.5387 29.3525 24.9141 29.8016 24.2709 30.1898C18.0949 33.9507 9.9379 33.1368 4.62886 27.7621C-1.58443 21.4706 -1.53782 11.3106 4.73141 5.0752L7.29969 7.676C2.45677 12.4894 2.42415 20.3292 7.22045 25.1847C12.0168 30.0448 19.8288 30.0775 24.6717 25.2642L27.2354 27.865Z" fill="#001056"/>
<path d="M22.4205 10.0944C25.6646 13.3829 25.6413 18.6874 22.3692 21.9477L24.1078 23.7066C28.3494 19.4873 28.3821 12.611 24.1777 8.35433C19.9734 4.09761 13.1215 4.06487 8.87988 8.28416L10.6185 10.043C13.8859 6.78262 19.1763 6.81068 22.4205 10.0944Z" fill="#001056"/>
<path d="M30.5166 23.8186C30.1484 24.4876 29.7289 25.1378 29.2535 25.7599C28.8107 26.3446 28.3212 26.9013 27.7852 27.4345L25.2216 24.8337C30.0598 20.0203 30.0971 12.1805 25.3008 7.32505C20.5045 2.46492 12.6925 2.43217 7.84954 7.24553L5.28125 4.64941C11.5551 -1.59065 21.6745 -1.54388 27.8878 4.74764C33.0103 9.93521 33.882 17.7423 30.5166 23.8186Z" fill="#001056"/>
<path d="M20.0195 12.4192C21.9539 14.3745 21.9399 17.5366 19.9869 19.4779C18.0385 21.4191 14.8876 21.4051 12.9532 19.4451C11.0189 17.4899 11.0328 14.3277 12.9859 12.3865C14.9389 10.4499 18.0898 10.4639 20.0195 12.4192Z" fill="#35BCDC"/>
<path d="M49.9494 47.5857C49.7816 45.8129 49.2036 43.8623 47.9777 41.8088L47.9591 41.79L46.4116 43.3243C47.1247 44.8352 47.493 46.276 47.6188 47.6185C46.2112 47.5015 44.6916 47.1179 43.0975 46.3461L41.5547 47.8851L41.5733 47.9038C43.7268 49.2229 45.7637 49.8123 47.6095 49.962C48.4252 50.0275 49.2083 50.0041 49.9401 49.9199C50.0146 49.1808 50.024 48.4043 49.9494 47.5857Z" fill="#00BAEB"/>
<path d="M42.8739 45.8133L41.2658 47.4084L24.2666 30.1945C24.9145 29.8015 25.5344 29.3572 26.1357 28.8613L42.8739 45.8133Z" fill="#00BAEB"/>
<path d="M47.6514 41.1633L46.048 42.7584L29.2539 25.7596C29.7247 25.1375 30.1488 24.4873 30.5171 23.8184L47.6514 41.1633Z" fill="#00BAEB"/>
</g>
<defs>
<clipPath id="clip0_117_7399">
<rect width="50" height="50" fill="white"/>
</clipPath>
</defs>
</svg>
