<?xml version="1.0" encoding="utf-8"?>
<!-- Generator: Adobe Illustrator 24.0.2, SVG Export Plug-In . SVG Version: 6.00 Build 0)  -->
<svg version="1.1" id="Layer_1" xmlns="http://www.w3.org/2000/svg" xmlns:xlink="http://www.w3.org/1999/xlink" x="0px" y="0px"
	 viewBox="0 0 107.8 83.9" style="enable-background:new 0 0 107.8 83.9;" xml:space="preserve">
<style type="text/css">
	.st0{fill:#35BCDC;}
	.st1{fill:#001056;}
</style>
<title>mmAsset 4</title>
<g id="Layer_2_1_">
	<g id="Layer_1-2">
		<path class="st0" d="M89.4,36.7h-6.6c0-9.4-7.6-17-17-17c1.8,0,3.3-1.5,3.3-3.3c0-1.8-1.5-3.3-3.3-3.3
			C78.9,13.1,89.4,23.7,89.4,36.7z"/>
		<path class="st1" d="M65.8,19.7c-9.4,0-17,7.6-17,17h-6.6c0-13,10.6-23.6,23.6-23.6c-1.8,0-3.3,1.5-3.3,3.3
			C62.5,18.2,64,19.7,65.8,19.7z"/>
		<path class="st1" d="M48.9,36.7v6.6c-9.4,0-17,7.6-17,17l0,0c0-1.8-1.5-3.3-3.3-3.3c-1.8,0-3.3,1.5-3.3,3.3l0,0
			C25.3,47.3,35.8,36.7,48.9,36.7z"/>
		<rect x="42.3" y="36.7" class="st1" width="6.6" height="2.7"/>
		<rect x="48.9" y="77.2" class="st0" width="58.9" height="6.6"/>
		<path class="st1" d="M50.1,11c-1.9,1.1-3.6,2.5-5.2,4c-3-5.2-8.6-8.4-14.7-8.4c1.8,0,3.3-1.5,3.3-3.3S32,0,30.2,0l0,0
			C38.3,0,45.8,4.2,50.1,11z"/>
		<path class="st0" d="M30.2,6.6c-9.4,0-17,7.6-17,17l0,0H6.6C6.6,10.6,17.2,0,30.2,0c-1.8,0-3.3,1.5-3.3,3.3S28.4,6.6,30.2,6.6z"/>
		<path class="st1" d="M26.5,64.1c0.3,2.3,0.8,4.5,1.6,6.6H0v-6.6H26.5z"/>
		<polygon class="st1" points="61.3,44.2 68.6,65.1 71.4,53.3 		"/>
		<path class="st0" d="M31.9,60.3c0,9.4,7.6,17,17,17c0,0,0,0,0,0v6.6c-13,0-23.6-10.6-23.6-23.6c0,1.8,1.5,3.3,3.3,3.3
			C30.4,63.6,31.9,62.1,31.9,60.3z"/>
		<polyline class="st1" points="61.3,44.2 82.8,49.4 71.4,53.3 		"/>
		<polygon class="st1" points="75.8,55.8 81.5,72.1 83.6,62.8 		"/>
		<polyline class="st1" points="75.8,55.8 92.6,59.8 83.6,62.8 		"/>
	</g>
</g>
<rect x="6.6" y="23.6" class="st0" width="6.6" height="5"/>
</svg>
