<svg xmlns="http://www.w3.org/2000/svg" viewBox="0 0 229.63 163.93"><defs><style>.cls-1{fill:#35bcdc;}.cls-2{fill:#001056;}</style></defs><title>mmAsset 7</title><g id="Layer_2" data-name="Layer 2"><g id="Layer_1-2" data-name="Layer 1"><path class="cls-1" d="M125.43,46.11h-12.9A33.25,33.25,0,0,0,79.34,12.9a6.45,6.45,0,1,0,0-12.9A46.15,46.15,0,0,1,125.43,46.11Z"/><path class="cls-1" d="M79.34,12.9A33.25,33.25,0,0,0,46.12,46.11H33.22A46.16,46.16,0,0,1,79.34,0a6.45,6.45,0,0,0,0,12.9Z"/><rect class="cls-1" x="33.22" y="46.11" width="12.89" height="5.21"/><path class="cls-2" d="M46.11,46.11V59A33.24,33.24,0,0,0,12.9,92.21a6.45,6.45,0,0,0-12.9,0A46.16,46.16,0,0,1,46.11,46.11Z"/><rect class="cls-2" x="46.11" y="125.35" width="34.53" height="12.97"/><path class="cls-1" d="M12.9,92.21a33.24,33.24,0,0,0,33.21,33.21v12.9A46.16,46.16,0,0,1,0,92.21a6.45,6.45,0,1,0,12.9,0Z"/><path class="cls-1" d="M196.41,71.72h-12.9a33.25,33.25,0,0,0-33.19-33.21,6.45,6.45,0,1,0,0-12.9A46.15,46.15,0,0,1,196.41,71.72Z"/><path class="cls-2" d="M150.32,38.51A33.25,33.25,0,0,0,117.1,71.72H104.2a46.16,46.16,0,0,1,46.12-46.11,6.45,6.45,0,1,0,0,12.9Z"/><path class="cls-2" d="M117.09,71.72V84.63a33.24,33.24,0,0,0-33.21,33.19,6.45,6.45,0,1,0-12.9,0A46.16,46.16,0,0,1,117.09,71.72Z"/><rect class="cls-2" x="104.2" y="71.72" width="12.89" height="5.21"/><rect class="cls-1" x="183.51" y="71.72" width="12.89" height="5.21" transform="translate(379.92 148.66) rotate(-180)"/><path class="cls-2" d="M183.51,71.72V84.63a33.24,33.24,0,0,1,33.22,33.19,6.45,6.45,0,1,1,12.9,0A46.16,46.16,0,0,0,183.51,71.72Z"/><rect class="cls-1" x="117.09" y="150.96" width="66.42" height="12.97"/><path class="cls-1" d="M83.88,117.82A33.24,33.24,0,0,0,117.09,151v12.9A46.16,46.16,0,0,1,71,117.82a6.45,6.45,0,1,0,12.9,0Z"/><path class="cls-1" d="M216.73,117.74A33.25,33.25,0,0,1,183.51,151v12.9a46.16,46.16,0,0,0,46.12-46.12,6.45,6.45,0,1,1-12.9,0Z"/><polygon class="cls-2" points="132.82 87.73 144.73 121.9 149.22 102.59 132.82 87.73"/><polyline class="cls-2" points="132.82 87.73 168 96.24 149.22 102.59"/><polygon class="cls-2" points="156.43 106.67 165.74 133.37 169.24 118.28 156.43 106.67"/><polyline class="cls-2" points="156.43 106.67 183.91 113.32 169.24 118.28"/></g></g></svg>