<svg xmlns="http://www.w3.org/2000/svg" viewBox="0 0 74.38 71.72"><defs><style>.cls-1{fill:#35bcdc;}.cls-2{fill:#001056;}</style></defs><title>mmAsset 9</title><g id="Layer_2" data-name="Layer 2"><g id="Layer_1-2" data-name="Layer 1"><path class="cls-1" d="M49.73,18.21v.07H45.22a2.48,2.48,0,0,0-.64-.79,4.55,4.55,0,0,0,0-.53A13.17,13.17,0,0,0,31.45,5.12,2.56,2.56,0,0,0,31.71,0,18.29,18.29,0,0,1,49.73,18.21Z"/><path class="cls-1" d="M31.45,5.11A13.19,13.19,0,0,0,18.28,18.28H13.17A18.3,18.3,0,0,1,31.45,0a2.56,2.56,0,1,0,0,5.11Z"/><rect class="cls-1" x="13.17" y="18.28" width="5.11" height="2.07"/><path class="cls-2" d="M18.28,18.28v5.11A13.19,13.19,0,0,0,5.11,36.55a2.56,2.56,0,0,0-5.11,0A18.3,18.3,0,0,1,18.28,18.28Z"/><path class="cls-1" d="M17.17,49.67a12.69,12.69,0,0,0-.56,3.77,2.56,2.56,0,0,0-5-.75l0-.12-.07.61v.34h0A18.29,18.29,0,0,1,0,36.81a2.56,2.56,0,0,0,5.11-.26,13.19,13.19,0,0,0,7.12,11.7A13,13,0,0,0,17.17,49.67Z"/><path class="cls-2" d="M61.21,35.17H56.1A13.18,13.18,0,0,0,42.94,22a2.56,2.56,0,0,0,2.28-3.73,2.48,2.48,0,0,0-.64-.79,2.57,2.57,0,0,0-1.38-.59c.45,0,.9,0,1.34.06a18,18,0,0,1,5.19,1.25A18.3,18.3,0,0,1,61.21,35.17Z"/><path class="cls-1" d="M42.94,22A13.18,13.18,0,0,0,29.77,35.17H24.66A18.3,18.3,0,0,1,42.94,16.89a2.56,2.56,0,1,0,0,5.12Z"/><path class="cls-2" d="M29.77,35.17v5.12a13.16,13.16,0,0,0-12.6,9.38,12.69,12.69,0,0,0-.56,3.77,2.56,2.56,0,0,0-5-.75,2.66,2.66,0,0,0-.1.49,18.22,18.22,0,0,1,18.27-18Z"/><rect class="cls-2" x="24.66" y="35.17" width="5.11" height="2.07"/><rect class="cls-2" x="56.1" y="35.17" width="5.11" height="2.07" transform="translate(117.31 72.41) rotate(-180)"/><path class="cls-1" d="M56.1,35.17v5.12A13.17,13.17,0,0,1,69.26,53.44a2.56,2.56,0,0,1,5.12,0A18.3,18.3,0,0,0,56.1,35.17Z"/><rect class="cls-1" x="29.77" y="66.58" width="26.33" height="5.14"/><path class="cls-2" d="M29.77,66.61v5.11a18.28,18.28,0,0,1-18.27-18,2.56,2.56,0,0,0,4.76,1,2.5,2.5,0,0,0,.35-1.28,11.67,11.67,0,0,0,.07,1.32A13.16,13.16,0,0,0,29.77,66.61Z"/><path class="cls-1" d="M69.26,53.41A13.18,13.18,0,0,1,56.1,66.58v5.11A18.29,18.29,0,0,0,74.38,53.41a2.56,2.56,0,0,1-5.12,0Z"/><polygon class="cls-2" points="36 41.52 40.73 55.06 42.5 47.41 36 41.52"/><polyline class="cls-2" points="36 41.52 49.95 44.89 42.5 47.41"/><polygon class="cls-2" points="45.36 49.02 49.05 59.61 50.44 53.63 45.36 49.02"/><polyline class="cls-2" points="45.36 49.02 56.25 51.66 50.44 53.63"/></g></g></svg>