<svg width="48" height="42" viewBox="0 0 48 42" fill="none" xmlns="http://www.w3.org/2000/svg">
<g clip-path="url(#clip0_117_7410)">
<path d="M41.165 18.3752H37.8841C37.8841 13.6824 34.0962 9.86606 29.4434 9.86606C30.3481 9.86606 31.0838 9.12482 31.0838 8.2133C31.0838 7.30178 30.3481 6.56055 29.4434 6.56055C35.9057 6.56055 41.165 11.8594 41.165 18.3752Z" fill="#35BCDC"/>
<path d="M27.8025 8.2133C27.8025 7.30178 28.5332 6.56055 29.4429 6.56055C22.9756 6.56055 17.7163 11.8594 17.7163 18.3752V18.846C12.8398 20.2784 9.26562 24.816 9.26562 30.1849C9.26562 29.2734 10.0013 28.5322 10.9061 28.5322C11.8108 28.5322 12.5465 29.2734 12.5465 30.1849C12.5465 25.4971 16.3344 21.6807 20.9922 21.6807V19.7125V18.3752H20.9972C20.9972 13.6824 24.7851 9.86606 29.4429 9.86606C28.5332 9.86606 27.8025 9.12482 27.8025 8.2133Z" fill="#001056"/>
<path d="M20.9922 38.6797V38.6947C16.3344 38.6947 12.5465 34.8784 12.5465 30.1855C12.5465 31.1021 11.8108 31.8383 10.9061 31.8383C10.0013 31.8383 9.26562 31.1021 9.26562 30.1855C9.26562 36.7014 14.5249 42.0002 20.9922 42.0002H47.9997V38.6797H20.9922Z" fill="#35BCDC"/>
<path d="M21.6139 5.48414C20.6744 6.0601 19.7995 6.74624 19.0091 7.52254C17.5426 4.99833 14.8285 3.30551 11.7266 3.30551C12.6313 3.30551 13.367 2.56427 13.367 1.65275C13.367 0.741235 12.6313 0 11.7266 0C15.8774 0 19.536 2.18865 21.6139 5.48414Z" fill="#001056"/>
<path d="M11.7266 3.30551C7.06877 3.30551 3.28086 7.12187 3.28086 11.8147H0C0 5.29883 5.25932 0 11.7266 0C10.8169 0 10.0862 0.741235 10.0862 1.65275C10.0862 2.56427 10.8169 3.30551 11.7266 3.30551Z" fill="#35BCDC"/>
<path d="M6.11433 32.1133C6.25352 33.2702 6.5319 34.3821 6.92461 35.4388H0V32.1133H6.11433Z" fill="#001056"/>
<path d="M27.1963 22.1221L30.8202 32.5845L32.1772 26.6697L37.8889 24.7264L27.1963 22.1221Z" fill="#001056"/>
<path d="M34.374 27.9219L37.2025 36.0955L38.2663 31.4728L42.7253 29.9553L34.374 27.9219Z" fill="#001056"/>
</g>
<defs>
<clipPath id="clip0_117_7410">
<rect width="48" height="42" fill="white"/>
</clipPath>
</defs>
</svg>
