<svg width="51" height="51" viewBox="0 0 51 51" fill="none" xmlns="http://www.w3.org/2000/svg">
<g clip-path="url(#clip0_117_7425)">
<path d="M25.5205 30.0163L28.2563 29.9199C31.2915 38.556 37.8442 40.7214 41.0875 41.3755C40.5089 41.6392 40.113 42.2376 40.1383 42.9121C40.1536 43.404 40.3921 43.8401 40.7525 44.1241L40.7373 44.1393C40.7271 44.1393 40.717 44.1342 40.7068 44.1342C40.2906 43.835 28.9872 43.6169 25.5205 30.0467V30.0163Z" fill="#00BAEB"/>
<path d="M25.5205 21.2578L28.2563 21.3541C31.2915 12.718 37.8442 10.5527 41.0875 9.89851C40.5089 9.63482 40.113 9.03643 40.1383 8.36197C40.1536 7.87007 40.3921 7.43396 40.7525 7.14998L40.7373 7.13477C40.7271 7.13477 40.717 7.13984 40.7068 7.13984C40.2906 7.43903 28.9872 7.65709 25.5205 21.2273V21.2578Z" fill="#00BAEB"/>
<path d="M49.5893 25.5021C49.5893 28.2355 47.3712 30.4515 44.6355 30.4515C41.8997 30.4515 39.6816 28.2355 39.6816 25.5021C39.6816 22.7688 41.8997 20.5527 44.6355 20.5527C47.3712 20.5477 49.5893 22.7637 49.5893 25.5021Z" fill="#35BCDC"/>
<path d="M51.0004 7.74334C51.0004 10.4767 48.7824 12.6927 46.0466 12.6927C43.3108 12.6927 41.0928 10.4767 41.0928 7.74334C41.0928 5.01002 43.3108 2.79395 46.0466 2.79395C48.7824 2.78888 51.0004 5.01002 51.0004 7.74334Z" fill="#00BAEB"/>
<path d="M50.9291 43.383C50.9291 46.1163 48.7111 48.3324 45.9753 48.3324C43.2395 48.3324 41.0215 46.1163 41.0215 43.383C41.0215 40.6497 43.2395 38.4336 45.9753 38.4336C48.7111 38.4336 50.9291 40.6497 50.9291 43.383Z" fill="#00BAEB"/>
<path d="M40.7575 24.0723H31.332V26.9324H40.7575V24.0723Z" fill="#35BCDC"/>
<path d="M25.5253 12.0738V8.13867C15.9831 8.13867 8.25293 15.867 8.25293 25.3956C8.25293 34.9293 15.9882 42.6525 25.5253 42.6525V38.7174C18.1606 38.7174 12.1916 32.7538 12.1916 25.3956C12.1916 18.0374 18.1606 12.0738 25.5253 12.0738Z" fill="#1B1464"/>
<path d="M25.5254 5.81655V0C11.4253 0 0 11.415 0 25.5025C0 39.585 11.4253 51.0051 25.5254 51.0051V45.1835C14.6432 45.1835 5.82176 36.3699 5.82176 25.4975C5.82176 14.6301 14.6432 5.81655 25.5254 5.81655Z" fill="#1B1464"/>
<path d="M31.7377 25.3965C31.7377 28.8245 28.9562 31.6086 25.5251 31.6086C22.0939 31.6086 19.3125 28.8296 19.3125 25.3965C19.3125 21.9684 22.0939 19.1895 25.5251 19.1895C28.9562 19.1844 31.7377 21.9633 31.7377 25.3965Z" fill="#1B1464"/>
</g>
<defs>
<clipPath id="clip0_117_7425">
<rect width="51" height="51" fill="white"/>
</clipPath>
</defs>
</svg>
