<svg width="210" height="54" viewBox="0 0 210 54" fill="none" xmlns="http://www.w3.org/2000/svg">
<g clip-path="url(#clip0_1_2106)">
<path d="M30.1954 43.4649H13.9626C17.211 41.0424 20.1595 37.0096 20.9762 30.2637L31.3628 40.6502C32.401 41.6884 31.6673 43.4649 30.1954 43.4649Z" fill="#001056"/>
<path d="M19.8318 29.1194C18.8767 37.0466 14.9685 41.2271 11.0925 43.4558H0C2.12253 42.9943 12.9936 41.3102 16.7265 28.0259C16.8926 28.9026 17.6632 29.5624 18.586 29.5624C19.0567 29.5624 19.4858 29.3917 19.818 29.1056L19.8318 29.1194Z" fill="#35BCDC"/>
<path d="M29.4155 9.31494C17.4462 13.4308 16.2973 23.5821 15.9328 25.2201L7.31344 16.6008C4.62336 13.9107 6.52903 9.31494 10.3311 9.31494H29.4155Z" fill="#001056"/>
<path d="M34.1775 9.31494V12.4987C24.0078 15.6733 21.2254 23.1991 20.3348 26.9412C20.0488 26.2583 19.3705 25.7738 18.5861 25.7738C18.0139 25.7738 17.4971 26.0276 17.151 26.4382L17.1372 26.4198C17.1418 26.4106 17.1418 26.3967 17.1418 26.3875C17.5063 25.9168 18.2215 12.794 34.1359 9.31494H34.1775Z" fill="#35BCDC"/>
<path d="M62.9886 17.8421C62.9886 22.7609 61.3321 25.2479 57.1931 25.6863V25.8801C62.3103 26.3184 64.0129 29.5345 64.0129 34.9424C64.0129 42.0067 60.9445 43.857 53.1511 43.857C47.3049 43.857 44.3841 43.8109 40.5312 43.4694V9.36584C43.9411 9.02439 46.5712 8.97363 51.6376 8.97363C59.9663 8.97363 62.9886 10.8239 62.9886 17.8421ZM44.8178 12.6788V24.1267H52.1267C57.0455 24.1267 58.7989 22.9593 58.7989 18.3312C58.7989 13.7032 56.8978 12.6788 51.4438 12.6788H44.8178ZM44.8178 40.1057C46.8158 40.1564 49.492 40.1564 52.4682 40.1564C57.876 40.1564 59.6294 39.0859 59.6294 34.2133C59.6294 28.9531 57.7791 27.4443 52.1775 27.4443H44.8178V40.1057Z" fill="#001056"/>
<path d="M75.0684 19.397H70.9294V43.46H75.0684V19.397Z" fill="#001056"/>
<path d="M96.6999 19.4017V22.7147H89.0541V36.8388C89.0541 39.1782 89.9308 40.0549 92.3164 40.0549H95.9708L96.4599 43.271C94.9003 43.7093 92.2241 43.9031 91.0521 43.9031C86.9593 43.9031 84.8644 41.5637 84.8644 37.374V22.7101H80.481V19.6417L84.8644 19.4479V12.2866H89.0541V19.3971H96.6999V19.4017Z" fill="#001056"/>
<path d="M120.034 19.5447L119.692 22.6132C116.67 22.5163 113.555 22.3686 110.533 22.3686C106.053 22.3178 104.59 22.4147 104.59 25.437C104.59 27.9195 105.757 28.3117 108.097 28.8977L115.11 30.4573C118.913 31.2832 120.712 32.9905 120.712 37.0833C120.712 43.0264 117.399 44 110.432 44C108.678 44 105.075 43.9492 100.982 43.3171L101.272 40.2486C103.658 40.3963 106.487 40.4424 109.601 40.4424C114.958 40.3917 116.665 39.9533 116.665 37.0833C116.665 34.6977 115.157 34.2594 112.817 33.7195L105.901 32.1599C102.002 31.2325 100.493 29.3822 100.493 25.437C100.493 19.8354 103.317 18.668 109.896 18.8111C113.071 18.8618 117.062 19.1064 120.034 19.5447Z" fill="#35BCDC"/>
<path d="M131.242 18.3771C131.242 20.1813 131.145 21.787 130.951 23.102C134.555 20.4212 138.112 18.8155 141.67 18.8155C145.91 18.8155 148.199 21.058 148.199 25.4414V43.4645H143.912V26.6088C143.912 23.3927 142.985 22.3684 140.502 22.3684C137.628 22.3684 135.095 23.6834 131.196 26.1197V43.4599H127.006V8.87646H131.242V18.3771Z" fill="#35BCDC"/>
<path d="M160.081 19.397H155.942V43.46H160.081V19.397Z" fill="#35BCDC"/>
<path d="M183.71 8.34145L183.368 11.4607H178.399C175.233 11.4607 174.112 12.628 174.112 15.5534V19.4017H181.809V22.7147H174.112V43.4694H169.923V22.7101H165.539V19.6416L169.923 19.4478V15.0643C169.923 10.584 171.773 8 176.936 8C178.496 8 181.809 8.0969 183.71 8.34145Z" fill="#35BCDC"/>
<path d="M200.515 19.4017V22.7147H192.864V36.8388C192.864 39.1782 193.741 40.0549 196.127 40.0549H199.781L200.27 43.271C198.711 43.7093 196.034 43.9031 194.862 43.9031C190.77 43.9031 188.675 41.5637 188.675 37.374V22.7101H184.291V19.6417L188.675 19.4479V12.2866H192.864V19.3971H200.515V19.4017Z" fill="#35BCDC"/>
<path d="M161.109 13.8185C161.109 15.5304 159.721 16.9193 158.009 16.9193C156.297 16.9193 154.908 15.5304 154.908 13.8185C154.908 12.1066 156.297 10.7178 158.009 10.7178C159.721 10.7178 161.109 12.1066 161.109 13.8185Z" fill="#35BCDC"/>
<path d="M76.2313 13.8556C76.2313 12.1438 74.8424 10.7549 73.1305 10.7549C71.4187 10.7549 70.0298 12.1438 70.0298 13.8556C70.0298 15.5398 71.3725 16.9102 73.0475 16.9564C73.0752 16.9564 73.1028 16.9564 73.1305 16.9564C74.847 16.9564 76.2313 15.5675 76.2313 13.8556Z" fill="#001056"/>
</g>
<defs>
<clipPath id="clip0_1_2106">
<rect width="200.515" height="36" fill="white" transform="translate(0 8)"/>
</clipPath>
</defs>
</svg>
