<svg id="Layer_1" data-name="Layer 1" xmlns="http://www.w3.org/2000/svg" viewBox="0 0 32.03 31.99"><defs><style>.cls-1{fill:#001056;}.cls-2{fill:#35bcdc;}</style></defs><title>logo</title><path class="cls-1" d="M28.3,32H13.08c3-2.27,5.81-6.05,6.57-12.37l9.74,9.73A1.55,1.55,0,0,1,28.3,32"/><path class="cls-2" d="M18.58,18.56C17.69,26,14,29.9,10.4,32H0c2-.43,12.18-2,15.67-14.46A1.78,1.78,0,0,0,17.41,19a1.75,1.75,0,0,0,1.16-.43Z"/><path class="cls-1" d="M27.56,0A18.17,18.17,0,0,0,14.93,14.91L6.85,6.83A4,4,0,0,1,9.68,0Z"/><path class="cls-2" d="M32,0V3c-9.53,3-12.14,10-13,13.54a1.77,1.77,0,0,0-3-.48h0v0c.34-.45,1-12.74,15.93-16Z"/></svg>