<svg width="122" height="20" viewBox="0 0 122 20" fill="none" xmlns="http://www.w3.org/2000/svg">
<path d="M10.0666 12.9445C10.9862 10.7486 11.8237 8.71223 12.6941 6.69239C13.1867 5.54764 13.6356 4.35885 14.2815 3.30765C16.2575 0.0990237 20.7461 -0.121121 23.4119 2.58667C23.5542 2.72977 23.6856 2.88387 23.8443 3.05448C25.4098 1.79415 27.041 0.742949 29.143 0.737446C31.2286 0.731942 33.0185 1.33184 34.3706 3.07099C35.6405 1.86569 37.102 1.10069 38.8044 0.803489C42.6799 0.121036 46.0737 2.88937 46.112 6.83549C46.1448 9.93954 46.1284 13.0436 46.112 16.1477C46.1065 16.621 46.0518 17.1163 45.904 17.5566C45.477 18.8334 44.3713 19.4443 43.0028 19.2352C41.8588 19.0591 40.9994 18.0464 40.972 16.6815C40.9282 14.5131 40.9611 12.3446 40.9447 10.1762C40.9392 9.19655 40.972 8.2059 40.8352 7.24276C40.6491 5.91088 39.5543 5.17889 38.1037 5.25044C36.7407 5.32198 35.7062 6.19706 35.635 7.50143C35.5584 9.02594 35.5912 10.556 35.5858 12.0805C35.5803 13.5169 35.5912 14.9534 35.5803 16.3843C35.5639 18.4867 33.9929 19.736 32.1208 19.1306C31.1245 18.8059 30.5607 18.0519 30.5005 17.0558C30.3911 15.3496 30.4075 13.638 30.3856 11.9319C30.3692 10.589 30.3965 9.24058 30.3801 7.89219C30.3582 6.2521 29.3839 5.25044 27.8293 5.23943C26.1652 5.22292 25.0705 6.26311 25.054 7.93072C25.0321 10.6 25.0486 13.2748 25.0486 15.944C25.0486 16.2632 25.065 16.588 25.0157 16.9017C24.7694 18.5142 23.7239 19.3618 22.142 19.2572C20.8337 19.1692 19.8977 18.0574 19.8867 16.4779C19.8648 13.2582 19.8812 10.0386 19.8812 6.82448C19.8812 6.66488 19.8758 6.50527 19.8812 6.34566C19.8977 5.85584 19.8265 5.41004 19.2572 5.28896C18.6715 5.16788 18.469 5.60267 18.2774 6.03195C17.4892 7.77111 16.7064 9.51577 15.9127 11.2494C15.0642 13.1096 14.2158 14.9754 13.34 16.8246C13.1265 17.2759 12.8528 17.7052 12.5463 18.0904C11.2818 19.681 8.86236 19.7581 7.65264 18.129C6.89177 17.1053 6.3608 15.889 5.81341 14.7222C4.23147 11.321 2.69331 7.89769 1.14421 4.47993C0.459978 2.97193 0.90336 1.574 2.2554 0.952088C3.6184 0.330175 5.03065 0.941079 5.67657 2.47109C7.12167 5.89436 8.55581 9.33415 10.0666 12.9445Z" fill="black"/>
<path d="M65.7686 14.9204C66.5459 12.6694 67.2849 10.5505 68.0129 8.43158C68.7026 6.43375 69.3649 4.42492 70.0929 2.43811C70.2626 1.9758 70.5747 1.42543 70.9688 1.23831C71.3191 1.0732 71.9431 1.23831 72.3263 1.46396C72.8463 1.76666 72.7861 2.37206 72.6054 2.8894C72.1183 4.30935 71.6092 5.71828 71.1001 7.13272C69.9014 10.4954 68.6971 13.8527 67.4929 17.2099C67.3943 17.4906 67.2903 17.7658 67.1809 18.0409C66.9236 18.6904 66.4802 19.0976 65.7522 19.1032C65.0679 19.1087 64.6027 18.7454 64.3235 17.9584C63.8254 16.544 63.3437 15.124 62.8565 13.7041C61.9478 11.0568 61.0337 8.41507 60.125 5.76781C60.0922 5.66875 60.0265 5.57518 59.9389 5.39907C58.9536 8.22794 57.9957 10.9688 57.0433 13.7151C56.5561 15.113 56.0853 16.5109 55.5982 17.9089C55.3628 18.5803 54.9687 19.0756 54.1969 19.1032C53.5017 19.1307 52.9652 18.7564 52.6806 17.9584C50.8797 12.9281 49.0897 7.89222 47.3107 2.85638C47.0425 2.09688 47.36 1.41443 48.0278 1.17227C48.7832 0.897085 49.5003 1.24381 49.8068 2.09138C50.283 3.41775 50.721 4.75514 51.1753 6.09253C52.1004 8.80583 53.0309 11.5136 53.956 14.2269C54.0217 14.4195 54.1147 14.6012 54.2352 14.8874C54.892 12.9721 55.5161 11.1559 56.1456 9.33418C56.9393 7.01164 57.733 4.6891 58.5322 2.36656C58.8551 1.43094 59.2711 1.0732 59.9882 1.08421C60.7436 1.10072 61.1432 1.43094 61.4607 2.35555C62.7908 6.25213 64.1155 10.1487 65.4402 14.0453C65.5277 14.2875 65.6263 14.5406 65.7686 14.9204Z" fill="black"/>
<path d="M103.522 11.0954C103.675 15.4047 107.874 18.1235 111.853 16.5385C112.696 16.2027 113.468 15.6359 114.207 15.091C114.897 14.5847 115.482 14.5021 115.942 15.0195C116.38 15.5038 116.303 16.1532 115.729 16.7036C113.096 19.2077 109.992 19.8682 106.615 18.7564C103.347 17.6777 101.568 15.1901 100.993 11.8273C100.32 7.91424 101.995 3.98464 105.049 2.15192C109.352 -0.429288 114.814 1.57955 116.396 6.37873C116.73 7.38039 116.873 8.4591 116.971 9.5158C117.081 10.6441 116.588 11.0954 115.46 11.0954C111.766 11.1009 108.071 11.0954 104.381 11.0954H103.522ZM114.404 9.10854C114.349 5.65224 111.842 3.07654 108.749 3.23064C105.952 3.36823 103.319 6.36222 103.566 9.10854H114.404Z" fill="black"/>
<path d="M85.5292 8.6516C85.781 4.85958 83.3835 3.18648 79.7817 3.42864C78.6322 3.50569 77.4936 3.89644 76.366 4.19914C75.6598 4.38627 75.0522 4.19364 74.784 3.56623C74.5322 2.97734 74.7895 2.38294 75.4683 2.08575C78.2161 0.885951 81.0461 0.748359 83.8925 1.59042C86.3886 2.33341 87.9924 4.65045 88.0198 7.41328C88.0527 10.8586 88.0362 14.3038 88.0308 17.7491C88.0308 18.5967 87.5326 19.125 86.7718 19.1195C86.0273 19.114 85.5785 18.6242 85.5621 17.7821C85.5566 17.3364 85.5621 16.8906 85.5621 16.5824C84.533 17.2703 83.5641 18.1289 82.4365 18.6187C80.2415 19.5763 77.9698 19.5268 75.7967 18.4591C73.7495 17.4519 72.6985 15.8008 72.7861 13.4728C72.8682 11.2273 74.0232 9.7138 76.0211 8.83322C77.718 8.08472 79.5189 7.91961 81.3417 8.09573C82.7321 8.21681 84.1115 8.45347 85.5292 8.6516ZM85.5785 11.9923C85.5785 11.8327 85.5566 11.6676 85.584 11.5135C85.688 10.9081 85.4799 10.5889 84.8395 10.5228C83.3835 10.3687 81.9274 10.055 80.4714 10.044C79.4149 10.0385 78.3092 10.2807 77.3129 10.6439C76.0868 11.0952 75.4573 12.1464 75.3971 13.4673C75.3369 14.7827 75.8952 15.8008 77.0447 16.4668C78.6486 17.4024 80.34 17.3474 82.0314 16.8025C84.4125 16.0375 85.573 14.4249 85.5785 11.9923Z" fill="black"/>
<path d="M93.773 5.25604C94.0959 4.75521 94.2985 4.39197 94.5503 4.05625C95.771 2.41616 97.3419 1.34845 99.4001 1.1228C100.385 1.01823 100.938 1.39798 101.053 2.20702C101.174 3.03807 100.686 3.61045 99.7285 3.76455C96.4278 4.30941 94.1507 6.72552 93.8989 10.1873C93.7347 12.4768 93.8058 14.7884 93.7675 17.0889C93.762 17.3145 93.773 17.5457 93.762 17.7713C93.7237 18.4868 93.2639 18.9931 92.5961 19.0647C91.9666 19.1307 91.359 18.6739 91.2003 18.0135C91.1565 17.8374 91.1565 17.6503 91.1565 17.4686C91.1565 12.5154 91.151 7.56757 91.1565 2.61429C91.1565 1.47503 91.9338 0.820099 92.8807 1.1283C93.4774 1.32093 93.7401 1.76122 93.7511 2.37213C93.762 2.82893 93.7566 3.28574 93.7566 3.74254C93.773 4.18833 93.773 4.63413 93.773 5.25604Z" fill="black"/>
<path d="M119.407 5.40445C118.203 5.41546 117.261 4.46333 117.261 3.23601C117.261 2.01971 118.219 1.02905 119.396 1.02905C120.6 1.03456 121.536 1.98669 121.542 3.214C121.547 4.45232 120.622 5.39344 119.407 5.40445ZM117.683 3.15346C117.65 4.17714 118.372 4.96966 119.352 4.99168C120.343 5.01369 121.115 4.25969 121.137 3.25253C121.159 2.28939 120.431 1.48585 119.489 1.43632C118.531 1.38679 117.716 2.1628 117.683 3.15346Z" fill="black"/>
<path d="M119.96 3.50574C120.075 3.72038 120.184 3.92401 120.299 4.12765C120.25 4.17718 120.201 4.22672 120.151 4.27625C119.834 4.03409 119.522 3.79743 119.182 3.53876C119.057 3.84146 118.969 4.0561 118.876 4.27625C118.799 4.26524 118.723 4.24873 118.646 4.23772V2.23439C119.078 2.2399 119.538 2.15184 119.927 2.28943C120.102 2.34997 120.168 2.83429 120.217 3.13699C120.233 3.23606 120.047 3.37915 119.96 3.50574Z" fill="black"/>
</svg>
