<svg width="120" height="34" viewBox="0 0 120 34" fill="none" xmlns="http://www.w3.org/2000/svg">
<path d="M26.1544 0.0378418C26.6361 3.1419 25.492 5.60753 23.6255 8.08417C19.0055 14.2042 14.6428 20.5224 10.1762 26.7636C9.87512 27.1818 9.59047 27.6111 9.09235 28.3321H10.9261C13.4769 28.3321 16.0277 28.2991 18.5786 28.3486C19.5912 28.3651 20.1331 28.1064 20.2536 26.9782C20.3904 25.6188 20.7353 24.2814 20.998 22.9H25.8205V33.1918H0.0440612C0.0659567 31.0564 -0.3829 29.0421 1.12241 27.0167C6.14742 20.2527 10.9808 13.3402 15.8799 6.48261C16.0715 6.21844 16.2412 5.93775 16.5204 5.51947C16.0825 5.45343 15.7431 5.37088 15.4092 5.37088C12.7653 5.35987 10.1214 5.39839 7.47756 5.34886C6.57985 5.33235 6.2131 5.69009 6.0872 6.53215C5.8792 7.93558 5.62193 9.328 5.37013 10.803H0.0714306V0.0378418H26.1544Z" fill="black"/>
<path d="M104.682 33.9568C103.965 33.7752 103.243 33.6045 102.531 33.4174C98.7705 32.4323 96.2142 30.1207 95.0264 26.3838C93.9699 23.0596 93.8221 19.6638 94.6213 16.2736C95.8748 10.968 99.504 7.68236 104.923 7.22556C107.239 7.03293 109.68 7.10448 111.935 7.62182C116.703 8.71154 119.615 12.3605 119.927 17.6054C120.08 20.2197 119.954 22.9605 119.325 25.4812C118.11 30.3574 114.628 32.9551 109.74 33.7036C109.373 33.7586 109.018 33.8687 108.656 33.9568H104.682ZM104.912 28.1614C107.397 29.3117 109.773 28.7833 111.005 26.7305C112.784 23.764 112.351 20.5059 112.214 17.3027C112.099 17.2697 111.984 17.2422 111.864 17.2092C109.565 20.8306 107.266 24.452 104.912 28.1614ZM102.175 23.8411C104.688 19.9335 106.965 16.3891 109.258 12.8173C106.532 11.722 103.899 12.6962 102.788 15.2389C101.644 17.8696 101.781 20.6324 102.175 23.8411Z" fill="black"/>
<path d="M38.3445 33.9569C37.6219 33.7808 36.8994 33.6102 36.1823 33.4286C32.6188 32.5425 30.0844 30.4016 28.9076 26.9123C27.3968 22.4213 27.238 17.8808 29.1977 13.4503C30.4129 10.7095 32.5367 8.88232 35.312 7.84763C37.8026 6.92302 40.3862 6.85697 42.9808 7.3523C47.2505 8.17235 49.6973 10.8967 50.4527 15.0629C50.8687 17.3689 50.8085 19.7575 50.9782 22.2727H35.925C35.5857 25.2337 37.1238 27.7268 39.8772 27.9635C42.0667 28.1506 44.3329 27.6112 46.5553 27.303C47.2833 27.204 47.9785 26.8297 48.8379 26.527C49.44 28.1176 50.0312 29.6806 50.6497 31.3097C48.1099 32.8727 45.3291 33.3295 42.5977 33.9624H38.3445V33.9569ZM43.4407 17.6001C43.6322 14.1878 42.324 12.2891 39.8881 12.3166C37.299 12.3441 35.6076 14.5676 35.9196 17.6001H43.4407Z" fill="black"/>
<path d="M86.2571 0.0378418V6.80182H93.5428V11.7551H86.3939C86.3337 12.1624 86.2516 12.4761 86.2516 12.7843C86.2462 16.813 86.2297 20.8471 86.2626 24.8758C86.2845 27.5231 87.3026 28.4587 89.952 28.2881C91.0248 28.2165 92.0868 28.0239 93.2636 27.8753C93.8001 29.1466 94.3475 30.4455 95.0426 32.1021C92.7053 32.7405 90.472 33.3514 88.2441 33.9623H85.4086C85.3265 33.9183 85.2499 33.8467 85.1623 33.8302C80.1483 32.7956 78.7415 31.1224 78.6649 25.8995C78.6046 21.7773 78.6484 17.6495 78.6484 13.5273C78.6484 13.0154 78.6484 12.5036 78.6484 11.8101H74.8386V6.99996C74.9481 6.92841 75.0193 6.84035 75.1014 6.83485C79.1356 6.37804 81.0077 3.89039 81.4401 0.0433445H86.2571V0.0378418Z" fill="black"/>
<path d="M52.5491 11.1333C52.7516 9.74635 52.9268 8.53004 53.1184 7.21467H61.8546C62.0736 8.44748 62.298 9.71883 62.5662 11.2048C62.933 10.7645 63.2067 10.4728 63.4366 10.1536C65.4072 7.39629 68.0675 6.25153 71.4175 6.59276C72.3042 6.68632 72.7914 6.92297 72.7148 7.95766C72.6272 9.17397 72.6929 10.4013 72.6929 11.5681C70.8865 11.8708 69.217 12.0964 67.5693 12.4431C66.7975 12.6082 66.0531 12.9605 65.3305 13.3017C64.0059 13.9346 63.2943 14.8317 63.3709 16.5048C63.5296 19.9171 63.4202 23.3404 63.4202 26.7581C63.4202 28.899 63.4202 28.899 65.5823 29.1082C65.8122 29.1302 66.0367 29.1742 66.3487 29.2238V33.2469H52.9213V29.3503C52.9706 29.3118 53.0362 29.2128 53.1129 29.2017C56.3534 28.7945 55.8717 29.1522 55.8881 25.9656C55.91 22.025 55.8334 18.0844 55.9264 14.1438C55.9593 12.7568 55.5433 12.0028 54.1967 11.7222C53.6548 11.6121 53.1402 11.3479 52.5491 11.1333Z" fill="black"/>
</svg>
