<svg width="77" height="61" viewBox="0 0 77 61" fill="none" xmlns="http://www.w3.org/2000/svg">
<path d="M8.16634 60.9284C6.08092 60.9284 4.29568 60.1836 2.81061 58.6938C1.32554 57.2041 0.583008 55.4132 0.583008 53.3213V7.67843C0.583008 5.58647 1.32554 3.79562 2.81061 2.30589C4.29568 0.816155 6.08092 0.0712891 8.16634 0.0712891H68.833C70.9184 0.0712891 72.7037 0.816155 74.1887 2.30589C75.6738 3.79562 76.4163 5.58647 76.4163 7.67843V53.3213C76.4163 55.4132 75.6738 57.2041 74.1887 58.6938C72.7037 60.1836 70.9184 60.9284 68.833 60.9284H8.16634ZM8.16634 53.3213H68.833V15.2856H8.16634V53.3213ZM21.4372 49.5177L16.1288 44.1927L25.8924 34.3034L16.0341 24.4141L21.4372 19.0891L36.6038 34.3034L21.4372 49.5177ZM38.4997 49.5177V41.9106H61.2497V49.5177H38.4997Z" fill="#35BCDC"/>
</svg>
