<svg width="51" height="74" viewBox="0 0 51 74" fill="none" xmlns="http://www.w3.org/2000/svg">
<path d="M18.25 58.8636C16.2563 58.8636 14.5495 58.15 13.1297 56.7228C11.7099 55.2956 11 53.5799 11 51.5757V47.0208C7.55625 44.6522 4.88281 41.6156 2.97969 37.9109C1.07656 34.2063 0.125 30.2587 0.125 26.0681C0.125 18.9624 2.58698 12.9348 7.51094 7.98507C12.4349 3.03539 18.4313 0.560547 25.5 0.560547C32.5688 0.560547 38.5651 3.03539 43.4891 7.98507C48.413 12.9348 50.875 18.9624 50.875 26.0681C50.875 30.2587 49.9234 34.1911 48.0203 37.8654C46.1172 41.5397 43.4438 44.5915 40 47.0208V51.5757C40 53.5799 39.2901 55.2956 37.8703 56.7228C36.4505 58.15 34.7438 58.8636 32.75 58.8636H18.25ZM18.25 51.5757H32.75V43.1946L35.8313 41.0083C38.3083 39.3078 40.2266 37.1366 41.5859 34.4947C42.9453 31.8529 43.625 29.044 43.625 26.0681C43.625 21.0273 41.8578 16.7305 38.3234 13.1777C34.7891 9.62485 30.5146 7.84843 25.5 7.84843C20.4854 7.84843 16.2109 9.62485 12.6766 13.1777C9.14219 16.7305 7.375 21.0273 7.375 26.0681C7.375 29.044 8.05469 31.8529 9.41406 34.4947C10.7734 37.1366 12.6917 39.3078 15.1688 41.0083L18.25 43.1946V51.5757ZM18.25 73.4393C17.2229 73.4393 16.362 73.0901 15.6672 72.3917C14.9724 71.6933 14.625 70.8278 14.625 69.7954V66.1515H36.375V69.7954C36.375 70.8278 36.0276 71.6933 35.3328 72.3917C34.638 73.0901 33.7771 73.4393 32.75 73.4393H18.25Z" fill="#35BCDC"/>
</svg>
