<svg width="76" height="75" viewBox="0 0 76 75" fill="none" xmlns="http://www.w3.org/2000/svg">
<g clip-path="url(#clip0_115_7375)">
<path d="M26.083 73.75L19.4367 62.55L6.84388 59.75L8.06819 46.8L-0.501953 37L8.06819 27.2L6.84388 14.25L19.4367 11.45L26.083 0.25L37.9762 5.325L49.8695 0.25L56.5157 11.45L69.1086 14.25L67.8843 27.2L76.4544 37L67.8843 46.8L69.1086 59.75L56.5157 62.55L49.8695 73.75L37.9762 68.675L26.083 73.75ZM29.0563 64.825L37.9762 60.975L47.0711 64.825L51.9683 56.425L61.5878 54.15L60.7133 44.35L67.1847 37L60.7133 29.475L61.5878 19.675L51.9683 17.575L46.8962 9.175L37.9762 13.025L28.8814 9.175L23.9842 17.575L14.3646 19.675L15.2391 29.475L8.76779 37L15.2391 44.35L14.3646 54.325L23.9842 56.425L29.0563 64.825ZM34.3033 49.425L54.0671 29.65L49.1699 24.575L34.3033 39.45L26.7826 32.1L21.8854 37L34.3033 49.425Z" fill="#35BCDC"/>
</g>
<defs>
<clipPath id="clip0_115_7375">
<rect width="76" height="75" fill="white"/>
</clipPath>
</defs>
</svg>
